<svg width="37" height="25" viewBox="0 0 37 25" fill="none" xmlns="http://www.w3.org/2000/svg">
<rect x="0.25" y="0.25" width="36.5" height="23.5" rx="4.75" fill="#DAD063" stroke="black" stroke-width="0.5"/>
<path d="M36.4523 8.2V16.4402H26.0001C24.4537 16.4402 23.2001 15.1866 23.2001 13.6402V11C23.2001 9.45361 24.4537 8.2 26.0001 8.2L36.4523 8.2Z" fill="#DAD063" stroke="black" stroke-width="0.4"/>
<path d="M36.4519 15.8792V19.3194C36.4519 21.9704 34.3028 24.1194 31.6519 24.1194H25.9996C24.4532 24.1194 23.1996 22.8658 23.1996 21.3194V18.6792C23.1996 17.1328 24.4532 15.8792 25.9996 15.8792L36.4519 15.8792Z" fill="#DAD063" stroke="black" stroke-width="0.4"/>
<path d="M13 20.7998L18 21L23 20.7998" stroke="black" stroke-width="0.4"/>
<path d="M13 1.7998L18 1.5L23 1.7998" stroke="black" stroke-width="0.4"/>
<path d="M5.00197 23.8562C2.35118 23.8256 0.227077 21.652 0.25765 19.0012L0.297324 15.5612L10.7489 15.6817C12.2952 15.6995 13.5343 16.9675 13.5164 18.5138L13.486 21.1539C13.4681 22.7002 12.2002 23.9392 10.6539 23.9214L5.00197 23.8562Z" fill="#DAD063" stroke="black" stroke-width="0.4"/>
<path d="M0.290672 16.1207L0.385703 7.88099L10.8373 8.00153C12.3836 8.01937 13.6226 9.28734 13.6048 10.8336L13.5744 13.4737C13.5565 15.02 12.2885 16.2591 10.7423 16.2412L0.290672 16.1207Z" fill="#DAD063" stroke="black" stroke-width="0.4"/>
<path d="M0.379539 8.44197L0.419214 5.00197C0.449787 2.35117 2.62346 0.227064 5.27425 0.257637L10.9262 0.322822C12.4724 0.340656 13.7115 1.60863 13.6937 3.15493L13.6632 5.79499C13.6454 7.34128 12.3774 8.58034 10.8311 8.56251L0.379539 8.44197Z" fill="#DAD063" stroke="black" stroke-width="0.4"/>
</svg>
