<svg width="35" height="22" viewBox="0 0 35 22" fill="none" xmlns="http://www.w3.org/2000/svg">
<g clip-path="url(#clip0_442_7)">
<path d="M22.2319 2.35156H12.7676V19.648H22.2319V2.35156Z" fill="#B0B0B0"/>
<path d="M13.3688 11C13.3688 7.49106 14.9843 4.36593 17.5 2.3518C15.6602 0.878838 13.3387 0 10.8156 0C4.84229 0 0 4.92485 0 11C0 17.0751 4.84229 22 10.8156 22C13.3387 22 15.6602 21.1212 17.5 19.6482C14.9843 17.634 13.3688 14.5089 13.3688 11Z" fill="#6F6F6F"/>
<path d="M35 11C35 17.0751 30.1577 22 24.1844 22C21.6613 22 19.3398 21.1212 17.5 19.6482C20.0158 17.634 21.6312 14.5089 21.6312 11C21.6312 7.49106 20.0158 4.36593 17.5 2.3518C19.3398 0.878838 21.6613 0 24.1844 0C30.1577 0 35 4.92485 35 11Z" fill="#D9D9D9"/>
</g>
<defs>
<clipPath id="clip0_442_7">
<rect width="35" height="22" fill="white"/>
</clipPath>
</defs>
</svg>
